<?xml version="1.0" encoding="UTF-8"?>
<svg xmlns="http://www.w3.org/2000/svg" version="1.1" viewBox="0 0 1000 1000">
  <defs>
    <style>
      .cls-1 {
        fill: #231f20;
      }
    </style>
  </defs>
  <!-- Generator: Adobe Illustrator 28.7.3, SVG Export Plug-In . SVG Version: 1.2.0 Build 164)  -->
  <g>
    <g id="Layer_1">
      <g>
        <g>
          <path class="cls-1" d="M806.6,345h-16.3l-51.4,116.8h24.1l11.3-25.9h48.1l11.3,25.9h24.1l-51.4-116.8ZM783.2,415.9l15.2-34.6,15.2,34.6h-30.5Z"/>
          <rect class="cls-1" x="702.8" y="345" width="23.1" height="116.8"/>
          <polygon class="cls-1" points="575.7 461.8 598.8 461.8 598.8 385.7 665.6 461.8 681.8 461.8 681.8 345 658.7 345 658.7 421.1 591.9 345 575.7 345 575.7 461.8"/>
          <path class="cls-1" d="M510.6,345h-16.3l-51.4,116.8h24.1l11.3-25.9h48.1l11.3,25.9h24.1l-51.4-116.8ZM487.1,415.9l15.2-34.6,15.2,34.6h-30.5Z"/>
          <polygon class="cls-1" points="355.9 461.8 429.5 461.8 429.5 441.8 379 441.8 379 345 355.9 345 355.9 461.8"/>
          <polygon class="cls-1" points="335.1 365 335.1 345 263.1 345 263.1 461.8 336.8 461.8 336.8 441.8 286.2 441.8 286.2 409.3 323.1 409.3 323.1 389.2 286.2 389.2 286.2 365 335.1 365"/>
          <polygon class="cls-1" points="138.6 345 122.3 345 122.3 461.8 145.4 461.8 145.4 396.7 174.2 442.6 190.3 442.6 219.1 396.7 219.1 461.8 242.2 461.8 242.2 345 225.9 345 182.2 414.9 138.6 345"/>
        </g>
        <g>
          <path d="M242,556.2c-3.6,0-6.7-.8-9.4-2.4-2.6-1.6-4.7-3.9-6.1-6.8-1.4-2.9-2.2-6.3-2.2-10.2s.7-7.6,2.1-11.1c1.4-3.5,3.3-6.6,5.6-9.3s5.1-4.8,8.3-6.3c3.2-1.5,6.5-2.3,10.1-2.3s6.7.8,9.4,2.4c2.6,1.6,4.7,3.8,6.1,6.8s2.2,6.4,2.2,10.4-.7,7.6-2.1,11.1c-1.4,3.5-3.3,6.6-5.7,9.3-2.4,2.7-5.1,4.8-8.3,6.3-3.2,1.5-6.5,2.3-10,2.3ZM242.2,553.8c2.5,0,4.9-.7,7.1-2.1,2.3-1.4,4.2-3.4,6-6.1,1.7-2.6,3.1-5.6,4.2-8.9s1.6-6.8,1.6-10.6-.4-6.2-1.3-8.6c-.8-2.3-2-4.1-3.6-5.4-1.6-1.3-3.5-1.9-5.8-1.9s-5,.7-7.2,2.2-4.3,3.5-6,6.1c-1.7,2.6-3.1,5.6-4.1,9s-1.5,6.9-1.5,10.6.9,8.9,2.7,11.6c1.8,2.7,4.5,4.1,7.9,4.1Z"/>
          <path d="M270,571c-1.7,0-2.9-.3-3.8-1-.9-.6-1.3-1.5-1.3-2.7s.3-1.9,1-2.6c.7-.7,1.5-1,2.6-1s1.4.1,2,.4,1.2.6,1.7,1,1.1.7,1.7,1c.5.3,1.1.4,1.6.4.8,0,1.5-.3,2.1-1,.6-.7,1.1-1.8,1.4-3.4l10.1-43c1.2-5.1,3.1-8.9,5.7-11.6s5.8-3.9,9.8-3.9,4.8.5,6.2,1.6c1.5,1.1,2.2,2.5,2.2,4.4s-.5,2.8-1.4,4c-1,1.1-2.2,1.7-3.6,1.7s-1.4-.2-1.9-.7-.7-1-.7-1.6.2-1.3.5-1.8c.4-.6.7-1.1,1-1.7s.5-1.1.5-1.7c0-1.2-.9-1.8-2.6-1.8s-4,.9-5.5,2.8c-1.5,1.9-2.7,4.7-3.6,8.5l-7.8,32.8c-.9,4.1-2.3,7.8-4.1,10.9s-3.9,5.6-6.3,7.3-4.9,2.6-7.6,2.6ZM280.5,524l.7-2.6h22.8l-.7,2.6h-22.8Z"/>
          <path d="M305.3,571c-1.7,0-2.9-.3-3.8-1-.9-.6-1.3-1.5-1.3-2.7s.3-1.9,1-2.6c.7-.7,1.5-1,2.6-1s1.4.1,2,.4,1.2.6,1.7,1,1.1.7,1.7,1c.5.3,1.1.4,1.6.4.8,0,1.5-.3,2.1-1,.6-.7,1.1-1.8,1.4-3.4l10.1-43c1.2-5.1,3.1-8.9,5.7-11.6s5.8-3.9,9.8-3.9,4.8.5,6.2,1.6c1.5,1.1,2.2,2.5,2.2,4.4s-.5,2.8-1.4,4c-1,1.1-2.2,1.7-3.6,1.7s-1.4-.2-1.9-.7-.7-1-.7-1.6.2-1.3.5-1.8c.4-.6.7-1.1,1-1.7s.5-1.1.5-1.7c0-1.2-.9-1.8-2.6-1.8s-4,.9-5.5,2.8c-1.5,1.9-2.7,4.7-3.6,8.5l-7.8,32.8c-.9,4.1-2.3,7.8-4.1,10.9s-3.9,5.6-6.3,7.3-4.9,2.6-7.6,2.6ZM315.8,524l.7-2.6h22.8l-.7,2.6h-22.8Z"/>
          <path d="M360.1,520.2c1.1-3.4.8-5.1-1.1-5.1s-2.4.7-3.4,2c-1,1.4-2,3.5-3.1,6.3l-1.1,3h-1.6l2.1-6c.8-2.3,1.8-4,2.9-5.2,1.1-1.2,2.4-2,3.6-2.5,1.3-.5,2.5-.7,3.6-.7,1.7,0,3,.4,3.8,1.1.8.7,1.3,1.6,1.5,2.8.2,1.1.1,2.4-.2,3.7-.3,1.3-.6,2.6-1.1,3.9l-8.7,24.8c-.5,1.6-.7,2.8-.5,3.7.2.9.8,1.3,1.8,1.3s2.1-.6,3.1-1.8c1-1.2,2.1-3.4,3.3-6.5l1.1-3h1.6l-2.1,6c-.8,2.1-1.7,3.8-2.8,5-1.1,1.2-2.3,2.1-3.5,2.6-1.3.5-2.5.8-3.8.8-2.3,0-3.9-.5-4.7-1.6-.8-1.1-1.1-2.5-.9-4.2.2-1.7.7-3.6,1.4-5.6l8.7-24.8ZM362.6,498.4c.3-1.4,1-2.6,2.2-3.7s2.4-1.6,3.8-1.6,2.5.5,3.3,1.6c.8,1,1,2.3.8,3.7-.3,1.4-1,2.6-2.2,3.7-1.2,1-2.5,1.6-3.9,1.6s-2.4-.5-3.2-1.6c-.8-1-1-2.3-.8-3.7Z"/>
          <path d="M390.2,556.2c-3.3,0-5.9-1.1-7.7-3.3-1.8-2.2-2.8-5.3-2.8-9.3s.5-5.9,1.6-8.7c1.1-2.8,2.5-5.3,4.3-7.4,1.8-2.2,3.9-3.9,6.2-5.1,2.3-1.2,4.7-1.8,7.2-1.8s4.4.6,5.8,1.7c1.4,1.1,2.1,2.7,2.1,4.6s-.3,2.4-.8,3.6c-.5,1.2-1.3,2.1-2.2,2.8-.9.7-2,1-3.1,1s-1.6-.2-2.1-.7c-.5-.5-.7-1.1-.7-1.8s.2-1.5.6-2.1c.4-.6.9-1.1,1.5-1.6.6-.5,1.1-1,1.5-1.6.4-.6.6-1.2.6-1.8,0-1.1-.8-1.6-2.4-1.6s-3.5.5-5.1,1.6c-1.6,1.1-3.1,2.6-4.4,4.5-1.3,1.9-2.3,4.1-3.1,6.4-.8,2.4-1.2,4.8-1.2,7.3s.5,5.7,1.6,7.3c1.1,1.6,2.7,2.5,4.8,2.5s3.3-.5,4.6-1.6c1.4-1.1,2.7-2.7,3.9-5h2.4c-1.4,3.3-3.3,5.8-5.6,7.5-2.3,1.7-4.8,2.6-7.7,2.6Z"/>
          <path d="M427.5,556.2c-1.8,0-3.3-.5-4.5-1.4-1.1-.9-1.8-2.2-2.1-3.9-.3-1.6,0-3.5.8-5.6l5.4-14.9c.7-1.8.9-3.3.5-4.4-.4-1.1-1.2-1.6-2.4-1.6s-1.8.4-2.7,1.1c-.9.7-1.8,1.8-2.6,3.3l-1.2,2.4h-2.6l1.5-2.9c1.5-2.8,3-4.8,4.6-6,1.6-1.2,3.3-1.8,5.3-1.8s3.4.5,4.4,1.4,1.7,2.2,2,3.9,0,3.5-.8,5.6l-5.5,14.9c-.7,1.8-.8,3.3-.4,4.4.4,1.1,1.2,1.6,2.4,1.6,1.9,0,3.7-1.5,5.3-4.4l1.3-2.4h2.6l-1.4,2.9c-1.5,2.8-3.1,4.8-4.6,6-1.5,1.2-3.3,1.8-5.2,1.8ZM432.8,513.6c-1.1,0-2.1-.4-3-1.3-.8-.8-1.3-1.8-1.3-3s.5-2.4,1.4-3.3c1-.9,2.1-1.4,3.4-1.4s2.3.4,3.2,1.3c.8.8,1.3,1.8,1.3,3s-.5,2.4-1.5,3.3c-1,.9-2.2,1.4-3.5,1.4Z"/>
          <path d="M458.3,556.2c-2.9,0-5.2-1.1-7-3.4-1.7-2.2-2.6-5.3-2.6-9.2s.5-5.9,1.4-8.6,2.3-5.3,4.1-7.5c1.8-2.2,3.7-4,6-5.2,2.2-1.3,4.5-1.9,6.8-1.9s3.9.5,5.8,1.4,3.4,2.3,4.8,4.2l-4.5,3.2c-.3-2-1-3.5-2-4.6-1.1-1.1-2.3-1.6-3.9-1.6s-3,.5-4.4,1.6c-1.4,1.1-2.7,2.6-4,4.5-1.2,1.9-2.1,4.1-2.8,6.5-.7,2.4-1,4.9-1,7.5s.5,5.1,1.5,6.7,2.5,2.3,4.4,2.3,2.8-.5,4-1.4c1.2-.9,2.3-2.3,3.3-4v2c-1.1,2.4-2.6,4.2-4.3,5.5-1.7,1.3-3.6,1.9-5.7,1.9ZM473.8,556.2c-2.7,0-4.6-1-5.6-2.9-1.1-1.9-1.1-4.6-.2-7.9l5.7-20.2c1.4-.5,2.7-1.2,4.1-2.1s2.6-1.8,3.7-2.8l1.3,1.9c-.7.6-1.3,1.3-1.8,1.9-.5.7-.9,1.4-1.2,2.1-.3.7-.6,1.6-.9,2.7l-4.9,17.5c-.5,1.8-.5,3.3-.2,4.3.4,1.1,1.1,1.6,2.3,1.6s1.4-.2,2-.6,1.2-1,1.7-1.6,1-1.4,1.4-2.2l1.3-2.4h2.5l-1.6,3.4c-.7,1.4-1.5,2.7-2.4,3.8-.9,1.1-2,2-3.2,2.6s-2.5,1-3.9,1Z"/>
          <path d="M501.6,556.2c-2,0-3.5-.5-4.5-1.4s-1.7-2.2-1.9-3.9c-.2-1.6,0-3.5.6-5.5l8.8-31.2c.4-1.4.5-2.6.3-3.5-.2-.9-.8-1.5-1.8-1.9-1-.4-2.6-.6-4.7-.6l.7-2.6c3,0,5.8-.3,8.2-.8,2.5-.5,4.7-1.1,6.6-1.9l-12.3,43.5c-.5,1.8-.6,3.2-.3,4.3s1.1,1.6,2.4,1.6,1.9-.4,2.8-1.1c.9-.7,1.7-1.8,2.6-3.3l1.2-2.4h2.6l-1.4,2.9c-.8,1.5-1.7,2.9-2.7,4.1-1,1.2-2.1,2.1-3.3,2.7-1.2.6-2.5,1-3.9,1Z"/>
          <path d="M549.5,555.3l.7-2.6c2.2,0,3.9-.3,5.1-.7,1.2-.4,2.1-1,2.8-1.9.7-.9,1.3-2.2,1.7-4l8.2-29.3c.4-1.6.6-2.8.4-3.5s-.8-1.3-1.7-1.6-2.6-.5-4.8-.6l.7-2.6c.9,0,2.1,0,3.7.1,1.6,0,3.4,0,5.4,0s3,0,4.3,0,2.3,0,3.2-.1l3.2,39.7-2,.3,24.1-40c1.4,0,2.6.1,3.7.2,1.1,0,2.2,0,3.5,0,2.2,0,4.2,0,6,0s3.2,0,4.3-.1l-.7,2.6c-2.3,0-4,.2-5.2.5-1.2.3-2.1.9-2.6,1.6-.6.8-1.1,2-1.4,3.6l-8.4,30c-.4,1.5-.6,2.6-.5,3.5s.7,1.4,1.8,1.7c1.1.3,2.7.5,4.9.6l-.7,2.6c-1.1,0-2.6-.1-4.4-.2-1.9,0-4,0-6.4,0s-4.4,0-6.2,0c-1.8,0-3.2,0-4.3.2l.7-2.6c2.1,0,3.6-.3,4.7-.6,1.1-.3,1.9-.9,2.4-1.6.5-.8,1-1.9,1.4-3.5l9.9-35.2h-1.2l-26.6,43.8h-2.4l-3.6-42.8h-1.1l-9.3,33.3c-.5,1.8-.6,3.1-.5,4s.7,1.5,1.7,1.9c1,.4,2.5.6,4.6.7l-.7,2.6c-.9,0-2.1-.1-3.6-.2-1.5,0-3.1,0-4.9,0s-4,0-5.6,0c-1.6,0-3,0-4,.2Z"/>
          <path d="M634.5,556.2c-3.4,0-6-1.1-7.9-3.3-1.9-2.2-2.8-5.2-2.8-9.2s.5-6.1,1.6-8.8,2.5-5.2,4.3-7.4c1.8-2.2,3.9-3.9,6.2-5.1,2.3-1.2,4.9-1.8,7.5-1.8s4.1.5,5.4,1.6c1.3,1.1,1.9,2.6,1.9,4.5s-.9,4.6-2.7,6.8c-1.8,2.2-4.3,4.1-7.5,5.7-3.3,1.7-7.1,3-11.5,4v-2.1c3.5-.9,6.4-2.1,8.7-3.5,2.3-1.4,4.2-3,5.4-4.8,1.3-1.8,1.9-3.7,1.9-5.7s-.3-2.3-.8-3c-.6-.7-1.3-1-2.3-1s-2.8.6-4.2,1.8c-1.4,1.2-2.7,2.8-3.8,4.8-1.1,2-2,4.2-2.7,6.6-.7,2.4-1.1,4.8-1.1,7.1s.6,5.4,1.7,7,2.8,2.4,5,2.4,3.5-.5,4.9-1.6,2.7-2.7,3.9-4.9h2.4c-1.5,3.3-3.4,5.8-5.7,7.5-2.3,1.7-5,2.6-8,2.6Z"/>
          <path d="M663.4,555.3l7-25c.5-1.8.6-3.3.3-4.3s-1.1-1.6-2.3-1.6-1.8.4-2.7,1.1c-.9.7-1.7,1.8-2.5,3.3l-1.3,2.4h-2.5l1.4-2.9c.8-1.6,1.7-3,2.7-4.1,1-1.2,2-2.1,3.2-2.7s2.5-1,4-1,3.2.5,4.3,1.4c1.1.9,1.7,2.2,1.9,3.9s0,3.5-.6,5.6l-6.7,24h-6.3ZM681.9,555.3l6.1-21.9c.9-3,1-5.3.4-6.8-.6-1.5-1.9-2.3-3.9-2.3s-3.1.5-4.5,1.4c-1.4,1-2.7,2.4-4,4.3v-1.6c1.5-2.7,3.2-4.7,5.1-6,1.8-1.3,3.9-2,6.1-2s3.9.5,5.2,1.6,2.1,2.5,2.4,4.4c.4,1.9.2,4.2-.6,6.8l-6,21.9h-6.3ZM708.2,556.2c-1.9,0-3.4-.5-4.4-1.4s-1.7-2.2-1.9-3.8c-.2-1.6,0-3.5.7-5.6l3.2-12c.9-3,1-5.3.4-6.8s-1.9-2.3-4.1-2.3-3.1.5-4.4,1.5-2.7,2.4-3.9,4.3v-1.6c1.4-2.7,3.1-4.7,5-6s4-2,6.3-2,3.9.5,5.1,1.6c1.3,1.1,2.1,2.5,2.4,4.4s.1,4.2-.6,6.8l-3.6,13.1c-.5,1.8-.6,3.3-.3,4.3.3,1.1,1.1,1.6,2.3,1.6s1.9-.4,2.8-1.1,1.7-1.8,2.5-3.3l1.3-2.4h2.5l-1.5,2.9c-.8,1.5-1.7,2.9-2.6,4.1-1,1.2-2,2.1-3.2,2.7-1.1.6-2.5,1-4,1Z"/>
          <path d="M739.5,556.2c-3.4,0-6-1.1-7.9-3.3-1.9-2.2-2.8-5.2-2.8-9.2s.5-6.1,1.6-8.8,2.5-5.2,4.3-7.4c1.8-2.2,3.9-3.9,6.2-5.1,2.3-1.2,4.9-1.8,7.5-1.8s4.1.5,5.4,1.6c1.3,1.1,1.9,2.6,1.9,4.5s-.9,4.6-2.7,6.8c-1.8,2.2-4.3,4.1-7.5,5.7-3.3,1.7-7.1,3-11.5,4v-2.1c3.5-.9,6.4-2.1,8.7-3.5,2.3-1.4,4.2-3,5.4-4.8,1.3-1.8,1.9-3.7,1.9-5.7s-.3-2.3-.8-3c-.6-.7-1.3-1-2.3-1s-2.8.6-4.2,1.8c-1.4,1.2-2.7,2.8-3.8,4.8-1.1,2-2,4.2-2.7,6.6-.7,2.4-1.1,4.8-1.1,7.1s.6,5.4,1.7,7,2.8,2.4,5,2.4,3.5-.5,4.9-1.6,2.7-2.7,3.9-4.9h2.4c-1.5,3.3-3.4,5.8-5.7,7.5-2.3,1.7-5,2.6-8,2.6Z"/>
        </g>
      </g>
    </g>
  </g>
</svg>